<svg width="61" height="61" viewBox="0 0 61 61" fill="none" xmlns="http://www.w3.org/2000/svg">
<path d="M59.7234 26.2962C58.9994 25.2039 58.0594 24.3784 57.0178 23.8323C55.4808 23.0068 55.0489 21.089 55.9127 19.5777C57.1321 17.4821 57.6275 14.9547 57.1448 12.2622C56.3573 8.0457 52.953 4.64199 48.7359 3.86727C46.0684 3.37196 43.5152 3.87997 41.432 5.08651C39.9077 5.95014 38.0023 5.50562 37.1767 3.98157C36.6178 2.95284 35.7921 2.01301 34.6997 1.27639C32.1974 -0.425463 28.7931 -0.425463 26.2907 1.27639C25.1983 2.00031 24.3727 2.94014 23.8265 3.98157C23.0008 5.51832 21.0828 5.95014 19.5712 5.08651C17.4753 3.89267 14.9475 3.37196 12.2546 3.86727C8.05013 4.64199 4.63319 8.0584 3.85835 12.2622C3.36295 14.9547 3.87105 17.4821 5.07778 19.5777C5.94154 21.0763 5.52236 23.0068 3.98537 23.8323C2.94378 24.3784 2.0165 25.2039 1.26706 26.2962C-0.422354 28.7981 -0.422354 32.2019 1.26706 34.7038C1.9911 35.7961 2.93107 36.6216 3.97267 37.1677C5.50966 37.9932 5.94154 39.911 5.07778 41.4223C3.85835 43.5179 3.36295 46.0453 3.84565 48.7378C4.63319 52.9543 8.03743 56.358 12.2546 57.1454C14.9475 57.6407 17.4753 57.1327 19.5712 55.9262C21.0701 55.0626 23.0008 55.4817 23.8265 57.0184C24.3727 58.0472 25.1983 58.987 26.2907 59.7236C28.7931 61.4255 32.1974 61.4255 34.6997 59.7236C35.7921 58.9997 36.6178 58.0599 37.1767 57.0184C38.0023 55.4817 39.9077 55.0499 41.432 55.9135C43.5152 57.1073 46.0556 57.628 48.7359 57.1327C52.953 56.358 56.3573 52.9543 57.1448 48.7378C57.6275 46.0453 57.1321 43.5179 55.9127 41.4223C55.0489 39.9237 55.4935 37.9932 57.0178 37.1677C58.0467 36.6216 58.9867 35.7961 59.7234 34.7038C61.4255 32.2019 61.4255 28.7981 59.7234 26.2962ZM46.6908 6.73756C50.8826 6.73756 54.2741 10.1286 54.2741 14.3197C54.2741 18.5108 50.8826 21.9018 46.6908 21.9018C42.499 21.9018 39.1074 18.5108 39.1074 14.3197C39.1074 10.1286 42.499 6.73756 46.6908 6.73756ZM30.5079 3.05445C33.023 3.05445 35.0554 5.08651 35.0554 7.60119C35.0554 10.1159 33.023 12.1479 30.5079 12.1479C27.9929 12.1479 25.9605 10.1159 25.9605 7.60119C25.9605 5.08651 27.9929 3.05445 30.5079 3.05445ZM14.3124 6.73756C18.5042 6.73756 21.8957 10.1286 21.8957 14.3197C21.8957 18.5108 18.5042 21.9018 14.3124 21.9018C10.1206 21.9018 6.72909 18.5108 6.72909 14.3197C6.72909 10.1286 10.1206 6.73756 14.3124 6.73756ZM3.0581 30.5C3.0581 27.9853 5.09048 25.9533 7.60555 25.9533C10.1206 25.9533 12.153 27.9853 12.153 30.5C12.153 33.0147 10.1206 35.0467 7.60555 35.0467C5.09048 35.0467 3.0581 33.0147 3.0581 30.5ZM14.3124 54.2878C10.1206 54.2878 6.72909 50.8968 6.72909 46.7057C6.72909 42.5146 10.1206 39.1236 14.3124 39.1236C18.5042 39.1236 21.8957 42.5146 21.8957 46.7057C21.8957 50.8968 18.5042 54.2878 14.3124 54.2878ZM30.5079 57.9456C27.9929 57.9456 25.9605 55.9135 25.9605 53.3988C25.9605 50.8841 27.9929 48.8521 30.5079 48.8521C33.023 48.8521 35.0554 50.8841 35.0554 53.3988C35.0554 55.9135 33.023 57.9456 30.5079 57.9456ZM30.5079 41.8669C24.233 41.8669 19.152 36.7867 19.152 30.5127C19.152 24.2387 24.233 19.1585 30.5079 19.1585C36.7829 19.1585 41.8639 24.2387 41.8639 30.5127C41.8639 36.7867 36.7829 41.8669 30.5079 41.8669ZM46.6908 54.2878C42.499 54.2878 39.1074 50.8968 39.1074 46.7057C39.1074 42.5146 42.499 39.1236 46.6908 39.1236C50.8826 39.1236 54.2741 42.5146 54.2741 46.7057C54.2741 50.8968 50.8826 54.2878 46.6908 54.2878ZM53.4103 35.0467C50.8953 35.0467 48.8629 33.0147 48.8629 30.5C48.8629 27.9853 50.8953 25.9533 53.4103 25.9533C55.9254 25.9533 57.9578 27.9853 57.9578 30.5C57.9578 33.0147 55.9254 35.0467 53.4103 35.0467Z" fill="#33393B"/>
</svg>
