<svg width="123" height="132" viewBox="0 0 123 132" fill="none" xmlns="http://www.w3.org/2000/svg">
<path d="M103.049 38.0521C102.012 36.4716 100.664 35.277 99.1709 34.4867C96.9675 33.2921 96.3484 30.517 97.5866 28.33C99.3347 25.2976 100.045 21.6404 99.3529 17.7442C98.224 11.6426 93.3439 6.71724 87.2984 5.59617C83.4744 4.87942 79.8144 5.61455 76.828 7.36048C74.6429 8.6102 71.9115 7.96696 70.7279 5.76157C69.9267 4.27294 68.7431 2.91295 67.1771 1.84701C63.5899 -0.61567 58.7098 -0.61567 55.1225 1.84701C53.5565 2.89457 52.3729 4.25456 51.5899 5.76157C50.4063 7.98534 47.6567 8.6102 45.4898 7.36048C42.4853 5.63292 38.8616 4.87942 35.0013 5.59617C28.974 6.71724 24.0757 11.661 22.9649 17.7442C22.2548 21.6404 22.9831 25.2976 24.713 28.33C25.9512 30.4987 25.3503 33.2921 23.147 34.4867C21.6538 35.277 20.3246 36.4716 19.2502 38.0521C16.8284 41.6726 16.8284 46.598 19.2502 50.2185C20.2881 51.799 21.6356 52.9936 23.1288 53.7839C25.3321 54.9784 25.9512 57.7536 24.713 59.9406C22.9649 62.973 22.2548 66.6302 22.9467 70.5264C24.0757 76.628 28.9558 81.5534 35.0013 82.6928C38.8616 83.4096 42.4853 82.6744 45.4898 80.9285C47.6385 79.6788 50.4063 80.2853 51.5899 82.509C52.3729 83.9977 53.5565 85.3576 55.1225 86.4236C58.7098 88.8863 63.5899 88.8863 67.1771 86.4236C68.7431 85.376 69.9267 84.016 70.7279 82.509C71.9115 80.2853 74.6429 79.6604 76.828 80.9101C79.8144 82.6377 83.4562 83.3912 87.2984 82.6744C93.3439 81.5534 98.224 76.628 99.3529 70.5264C100.045 66.6302 99.3347 62.973 97.5866 59.9406C96.3484 57.7719 96.9857 54.9784 99.1709 53.7839C100.646 52.9936 101.993 51.799 103.049 50.2185C105.489 46.598 105.489 41.6726 103.049 38.0521ZM84.3667 9.74965C90.3758 9.74965 95.2376 14.6566 95.2376 20.7214C95.2376 26.7863 90.3758 31.6932 84.3667 31.6932C78.3576 31.6932 73.4957 26.7863 73.4957 20.7214C73.4957 14.6566 78.3576 9.74965 84.3667 9.74965ZM61.168 4.41996C64.7735 4.41996 67.687 7.36048 67.687 10.9994C67.687 14.6383 64.7735 17.5788 61.168 17.5788C57.5626 17.5788 54.6491 14.6383 54.6491 10.9994C54.6491 7.36048 57.5626 4.41996 61.168 4.41996ZM37.9512 9.74965C43.9602 9.74965 48.8221 14.6566 48.8221 20.7214C48.8221 26.7863 43.9602 31.6932 37.9512 31.6932C31.9421 31.6932 27.0802 26.7863 27.0802 20.7214C27.0802 14.6566 31.9421 9.74965 37.9512 9.74965ZM21.8177 44.1353C21.8177 40.4964 24.7312 37.5559 28.3367 37.5559C31.9421 37.5559 34.8556 40.4964 34.8556 44.1353C34.8556 47.7742 31.9421 50.7147 28.3367 50.7147C24.7312 50.7147 21.8177 47.7742 21.8177 44.1353ZM37.9512 78.5577C31.9421 78.5577 27.0802 73.6507 27.0802 67.5859C27.0802 61.5211 31.9421 56.6141 37.9512 56.6141C43.9602 56.6141 48.8221 61.5211 48.8221 67.5859C48.8221 73.6507 43.9602 78.5577 37.9512 78.5577ZM61.168 83.8506C57.5626 83.8506 54.6491 80.9101 54.6491 77.2712C54.6491 73.6323 57.5626 70.6918 61.168 70.6918C64.7735 70.6918 67.687 73.6323 67.687 77.2712C67.687 80.9101 64.7735 83.8506 61.168 83.8506ZM61.168 60.5838C52.1726 60.5838 44.8889 53.2325 44.8889 44.1537C44.8889 35.0748 52.1726 27.7235 61.168 27.7235C70.1634 27.7235 77.4472 35.0748 77.4472 44.1537C77.4472 53.2325 70.1634 60.5838 61.168 60.5838ZM84.3667 78.5577C78.3576 78.5577 73.4957 73.6507 73.4957 67.5859C73.4957 61.5211 78.3576 56.6141 84.3667 56.6141C90.3758 56.6141 95.2376 61.5211 95.2376 67.5859C95.2376 73.6507 90.3758 78.5577 84.3667 78.5577ZM93.9994 50.7147C90.394 50.7147 87.4805 47.7742 87.4805 44.1353C87.4805 40.4964 90.394 37.5559 93.9994 37.5559C97.6049 37.5559 100.518 40.4964 100.518 44.1353C100.518 47.7742 97.6049 50.7147 93.9994 50.7147Z" fill="#FDA5D5"/>
<path d="M0.0457798 131.147C0.274678 120.984 0.274678 107.479 0 97.2705H5.35622C5.12732 103.176 5.12732 106.884 5.21888 111.279H5.402C6.77539 108.441 9.61373 106.838 12.9556 106.838C18.5408 106.838 21.9742 110.501 21.8369 116.727C21.6996 122.404 21.7453 126.112 21.9285 131.147H16.5722C16.7554 126.844 16.8011 121.488 16.7096 117.78C16.618 113.66 15.1989 111.096 11.3534 111.096C7.69099 111.096 5.44778 113.614 5.26466 119.016C5.12732 122.358 5.1731 126.295 5.402 131.147H0.0457798Z" fill="#33393B"/>
<path d="M38.9202 131.88C31.5497 131.88 26.6971 126.844 26.6971 119.199C26.6971 112.012 31.4581 106.838 38.142 106.838C44.5511 106.838 48.7171 111.004 48.7171 117.597C48.7171 118.833 48.6713 119.703 48.5798 120.389H31.8244C32.1906 124.967 35.3952 127.714 39.6985 127.714C42.5368 127.714 44.8716 126.844 47.2979 124.784V129.133C45.421 130.781 42.2622 131.88 38.9202 131.88ZM31.8702 117.002H44.0476C43.9102 113.385 41.8959 110.684 38.3251 110.684C34.6627 110.684 32.2822 112.973 31.8702 117.002Z" fill="#33393B"/>
<path d="M54.0483 131.147C54.323 121.9 54.323 113.98 53.9109 107.571H59.0383L59.2214 111.233H59.4045C60.5948 108.441 63.4331 106.838 66.9124 106.838C72.4975 106.838 75.931 110.501 75.7936 116.727C75.6563 122.358 75.7021 126.112 75.8852 131.147H70.529C70.7121 126.844 70.7579 121.488 70.6663 117.78C70.5747 113.66 69.1556 111.096 65.3101 111.096C61.6019 111.096 59.4045 113.614 59.2214 119.016C59.1298 122.358 59.1756 126.249 59.4045 131.147H54.0483Z" fill="#33393B"/>
<path d="M82.5712 131.147C82.8458 122.083 82.8458 114.072 82.4338 107.571H87.2865C87.378 108.853 87.4238 110.089 87.4696 111.737H87.6069C88.7972 108.349 91.132 106.838 94.0161 106.838C94.7943 106.838 95.5268 106.93 96.0304 107.159V112.149C95.3437 111.92 94.657 111.783 93.6498 111.783C90.1248 111.783 87.9274 114.575 87.7443 118.604C87.6069 121.396 87.6985 125.974 87.9274 131.147H82.5712Z" fill="#33393B"/>
<path d="M110.136 131.88C103.132 131.88 98.0043 126.798 98.0043 119.336C98.0043 111.92 103.132 106.838 110.136 106.838C117.186 106.838 122.313 111.92 122.313 119.336C122.313 126.798 117.186 131.88 110.136 131.88ZM110.136 127.76C114.21 127.76 117.049 124.555 117.049 119.336C117.049 114.163 114.21 110.913 110.136 110.913C106.107 110.913 103.223 114.163 103.223 119.336C103.223 124.555 106.107 127.76 110.136 127.76Z" fill="#33393B"/>
</svg>
